<mxfile host="65bd71144e">
    <diagram id="YVllrO6XqDtNN5ADqJwb" name="Page-1">
        <mxGraphModel dx="1440" dy="610" grid="0" gridSize="10" guides="1" tooltips="1" connect="1" arrows="1" fold="1" page="0" pageScale="1" pageWidth="850" pageHeight="1100" background="#222222" math="0" shadow="0">
            <root>
                <mxCell id="0"/>
                <mxCell id="1" parent="0"/>
                <mxCell id="54" value="" style="rounded=0;fillColor=none;strokeColor=#FFFFFF;fontColor=#FFFFFF;strokeWidth=3;dashed=1;fontSize=17;" vertex="1" parent="1">
                    <mxGeometry x="104" y="74" width="430" height="308" as="geometry"/>
                </mxCell>
                <mxCell id="23" style="edgeStyle=none;shape=connector;curved=0;rounded=0;html=1;entryX=0;entryY=0;entryDx=0;entryDy=0;strokeColor=#FF0080;align=center;verticalAlign=middle;fontFamily=Helvetica;fontSize=12;fontColor=#FFFFFF;labelBackgroundColor=none;endArrow=classic;startArrow=classic;startFill=1;" edge="1" parent="1" source="2" target="5">
                    <mxGeometry relative="1" as="geometry"/>
                </mxCell>
                <mxCell id="24" style="edgeStyle=none;shape=connector;curved=0;rounded=0;html=1;entryX=0;entryY=0.25;entryDx=0;entryDy=0;strokeColor=#FF0080;align=center;verticalAlign=middle;fontFamily=Helvetica;fontSize=12;fontColor=#FFFFFF;labelBackgroundColor=none;endArrow=classic;startArrow=classic;startFill=1;" edge="1" parent="1" source="2" target="5">
                    <mxGeometry relative="1" as="geometry"/>
                </mxCell>
                <mxCell id="25" style="edgeStyle=none;shape=connector;curved=0;rounded=0;html=1;entryX=0;entryY=0.5;entryDx=0;entryDy=0;strokeColor=#FF0080;align=center;verticalAlign=middle;fontFamily=Helvetica;fontSize=12;fontColor=#FFFFFF;labelBackgroundColor=none;endArrow=classic;startArrow=classic;startFill=1;" edge="1" parent="1" source="2" target="5">
                    <mxGeometry relative="1" as="geometry"/>
                </mxCell>
                <mxCell id="26" style="edgeStyle=none;shape=connector;curved=0;rounded=0;html=1;entryX=0;entryY=0.75;entryDx=0;entryDy=0;strokeColor=#FF0080;align=center;verticalAlign=middle;fontFamily=Helvetica;fontSize=12;fontColor=#FFFFFF;labelBackgroundColor=none;endArrow=classic;startArrow=classic;startFill=1;" edge="1" parent="1" source="2" target="5">
                    <mxGeometry relative="1" as="geometry"/>
                </mxCell>
                <mxCell id="27" style="edgeStyle=none;shape=connector;curved=0;rounded=0;html=1;entryX=0;entryY=0.75;entryDx=0;entryDy=0;strokeColor=#FF99FF;align=center;verticalAlign=middle;fontFamily=Helvetica;fontSize=12;fontColor=#FFFFFF;labelBackgroundColor=none;endArrow=classic;fillColor=#dae8fc;exitX=1;exitY=1;exitDx=0;exitDy=0;startArrow=classic;startFill=1;" edge="1" parent="1" source="2" target="4">
                    <mxGeometry relative="1" as="geometry"/>
                </mxCell>
                <mxCell id="28" style="edgeStyle=none;shape=connector;curved=0;rounded=0;html=1;entryX=0;entryY=0.25;entryDx=0;entryDy=0;strokeColor=#FF99FF;align=center;verticalAlign=middle;fontFamily=Helvetica;fontSize=12;fontColor=#FFFFFF;labelBackgroundColor=none;endArrow=classic;fillColor=#dae8fc;exitX=1.002;exitY=0.713;exitDx=0;exitDy=0;exitPerimeter=0;startArrow=classic;startFill=1;" edge="1" parent="1" source="2" target="4">
                    <mxGeometry relative="1" as="geometry">
                        <mxPoint x="279" y="249" as="sourcePoint"/>
                    </mxGeometry>
                </mxCell>
                <mxCell id="49" style="edgeStyle=none;shape=connector;curved=0;rounded=0;html=1;entryX=0;entryY=1;entryDx=0;entryDy=0;strokeColor=#FF0080;align=center;verticalAlign=middle;fontFamily=Helvetica;fontSize=12;fontColor=#FFFFFF;labelBackgroundColor=none;endArrow=classic;startArrow=classic;startFill=1;" edge="1" parent="1" source="2" target="5">
                    <mxGeometry relative="1" as="geometry"/>
                </mxCell>
                <mxCell id="2" value="reverse-proxy" style="rounded=0;fillColor=none;strokeColor=#FFFFFF;fontColor=#FFFFFF;fontSize=18;" vertex="1" parent="1">
                    <mxGeometry x="138" y="208" width="120" height="50" as="geometry"/>
                </mxCell>
                <mxCell id="4" value="nginx (frontend)" style="rounded=0;fillColor=none;strokeColor=#FFFFFF;fontColor=#FFFFFF;fontSize=18;" vertex="1" parent="1">
                    <mxGeometry x="336" y="290" width="155" height="60" as="geometry"/>
                </mxCell>
                <mxCell id="5" value="spring (backend)" style="rounded=0;fillColor=none;strokeColor=#FFFFFF;fontColor=#FFFFFF;fontSize=18;" vertex="1" parent="1">
                    <mxGeometry x="332" y="113" width="158" height="60" as="geometry"/>
                </mxCell>
                <mxCell id="13" value="" style="group" vertex="1" connectable="0" parent="1">
                    <mxGeometry x="-39" y="176" width="55" height="108" as="geometry"/>
                </mxCell>
                <mxCell id="8" value="client" style="shape=umlActor;verticalLabelPosition=bottom;verticalAlign=top;html=1;outlineConnect=0;rounded=0;strokeColor=#FFFFFF;align=center;fontFamily=Helvetica;fontSize=12;fontColor=#FFFFFF;labelBackgroundColor=none;fillColor=none;" vertex="1" parent="13">
                    <mxGeometry x="11" y="16" width="30" height="60" as="geometry"/>
                </mxCell>
                <mxCell id="12" value="" style="rounded=0;whiteSpace=wrap;html=1;strokeColor=#FFFFFF;align=center;verticalAlign=middle;fontFamily=Helvetica;fontSize=12;fontColor=#FFFFFF;labelBackgroundColor=none;fillColor=none;dashed=1;" vertex="1" parent="13">
                    <mxGeometry width="55" height="108" as="geometry"/>
                </mxCell>
                <mxCell id="14" style="edgeStyle=none;shape=connector;curved=0;rounded=0;html=1;exitX=1;exitY=0.25;exitDx=0;exitDy=0;entryX=0;entryY=0.5;entryDx=0;entryDy=0;strokeColor=#6c8ebf;align=center;verticalAlign=middle;fontFamily=Helvetica;fontSize=12;fontColor=#FFFFFF;labelBackgroundColor=none;endArrow=classic;fillColor=#dae8fc;startArrow=classic;startFill=1;" edge="1" parent="1" source="12" target="2">
                    <mxGeometry relative="1" as="geometry"/>
                </mxCell>
                <mxCell id="15" style="edgeStyle=none;shape=connector;curved=0;rounded=0;html=1;entryX=0;entryY=0.75;entryDx=0;entryDy=0;strokeColor=#FFFFFF;align=center;verticalAlign=middle;fontFamily=Helvetica;fontSize=12;fontColor=#FFFFFF;labelBackgroundColor=none;endArrow=classic;exitX=1;exitY=0.5;exitDx=0;exitDy=0;startArrow=classic;startFill=1;" edge="1" parent="1" source="12" target="2">
                    <mxGeometry relative="1" as="geometry"/>
                </mxCell>
                <mxCell id="16" style="edgeStyle=none;shape=connector;curved=0;rounded=0;html=1;exitX=1;exitY=0.75;exitDx=0;exitDy=0;entryX=0;entryY=1;entryDx=0;entryDy=0;strokeColor=#FFFFFF;align=center;verticalAlign=middle;fontFamily=Helvetica;fontSize=12;fontColor=#FFFFFF;labelBackgroundColor=none;endArrow=classic;fillColor=#dae8fc;startArrow=classic;startFill=1;" edge="1" parent="1" source="12" target="2">
                    <mxGeometry relative="1" as="geometry"/>
                </mxCell>
                <mxCell id="17" value="" style="group" vertex="1" connectable="0" parent="1">
                    <mxGeometry x="-38" y="34" width="55" height="108" as="geometry"/>
                </mxCell>
                <mxCell id="18" value="client" style="shape=umlActor;verticalLabelPosition=bottom;verticalAlign=top;html=1;outlineConnect=0;rounded=0;strokeColor=#FFFFFF;align=center;fontFamily=Helvetica;fontSize=12;fontColor=#FFFFFF;labelBackgroundColor=none;fillColor=none;" vertex="1" parent="17">
                    <mxGeometry x="11" y="16" width="30" height="60" as="geometry"/>
                </mxCell>
                <mxCell id="19" value="" style="rounded=0;whiteSpace=wrap;html=1;strokeColor=#FFFFFF;align=center;verticalAlign=middle;fontFamily=Helvetica;fontSize=12;fontColor=#FFFFFF;labelBackgroundColor=none;fillColor=none;dashed=1;" vertex="1" parent="17">
                    <mxGeometry width="55" height="108" as="geometry"/>
                </mxCell>
                <mxCell id="20" style="edgeStyle=none;shape=connector;curved=0;rounded=0;html=1;exitX=1;exitY=0;exitDx=0;exitDy=0;entryX=0;entryY=0;entryDx=0;entryDy=0;strokeColor=#6c8ebf;align=center;verticalAlign=middle;fontFamily=Helvetica;fontSize=12;fontColor=#FFFFFF;labelBackgroundColor=none;endArrow=classic;fillColor=#dae8fc;startArrow=classic;startFill=1;" edge="1" parent="1" source="19" target="2">
                    <mxGeometry relative="1" as="geometry"/>
                </mxCell>
                <mxCell id="21" style="edgeStyle=none;shape=connector;curved=0;rounded=0;html=1;exitX=1;exitY=0.25;exitDx=0;exitDy=0;entryX=0;entryY=0.25;entryDx=0;entryDy=0;strokeColor=#FFFFFF;align=center;verticalAlign=middle;fontFamily=Helvetica;fontSize=12;fontColor=#FFFFFF;labelBackgroundColor=none;endArrow=classic;startArrow=classic;startFill=1;" edge="1" parent="1" source="19" target="2">
                    <mxGeometry relative="1" as="geometry"/>
                </mxCell>
                <mxCell id="22" style="edgeStyle=none;shape=connector;curved=0;rounded=0;html=1;exitX=1;exitY=0.5;exitDx=0;exitDy=0;entryX=0;entryY=0.5;entryDx=0;entryDy=0;strokeColor=#FFFFFF;align=center;verticalAlign=middle;fontFamily=Helvetica;fontSize=12;fontColor=#FFFFFF;labelBackgroundColor=none;endArrow=classic;startArrow=classic;startFill=1;" edge="1" parent="1" source="19" target="2">
                    <mxGeometry relative="1" as="geometry"/>
                </mxCell>
                <mxCell id="29" value="https://mydomain.com" style="edgeStyle=none;shape=connector;curved=0;rounded=0;html=1;exitX=1;exitY=1;exitDx=0;exitDy=0;strokeColor=#6c8ebf;align=center;verticalAlign=top;fontFamily=Helvetica;fontSize=9;fontColor=#FFFFFF;labelBackgroundColor=none;endArrow=classic;fillColor=#dae8fc;strokeWidth=2;" edge="1" parent="1">
                    <mxGeometry x="-0.0061" relative="1" as="geometry">
                        <mxPoint x="-147" y="142" as="sourcePoint"/>
                        <mxPoint x="-79" y="142" as="targetPoint"/>
                        <mxPoint as="offset"/>
                    </mxGeometry>
                </mxCell>
                <mxCell id="30" value="&lt;span style=&quot;color: rgb(255, 255, 255);&quot;&gt;https://&lt;/span&gt;api.mydomain.com" style="edgeStyle=none;shape=connector;curved=0;rounded=0;html=1;exitX=1;exitY=1;exitDx=0;exitDy=0;align=center;verticalAlign=top;fontFamily=Helvetica;fontSize=9;fontColor=#FFFFFF;labelBackgroundColor=none;endArrow=classic;strokeWidth=2;strokeColor=#FFFFFF;" edge="1" parent="1">
                    <mxGeometry x="-0.0061" relative="1" as="geometry">
                        <mxPoint x="-147" y="182" as="sourcePoint"/>
                        <mxPoint x="-79" y="182" as="targetPoint"/>
                        <mxPoint as="offset"/>
                    </mxGeometry>
                </mxCell>
                <mxCell id="32" value="port 8080" style="text;html=1;align=center;verticalAlign=middle;whiteSpace=wrap;rounded=0;fontFamily=Helvetica;fontSize=18;fontColor=#FFFFFF;labelBackgroundColor=none;" vertex="1" parent="1">
                    <mxGeometry x="343" y="89" width="97" height="19" as="geometry"/>
                </mxCell>
                <mxCell id="33" value="" style="group" vertex="1" connectable="0" parent="1">
                    <mxGeometry x="-39" y="350" width="55" height="108" as="geometry"/>
                </mxCell>
                <mxCell id="34" value="client" style="shape=umlActor;verticalLabelPosition=bottom;verticalAlign=top;html=1;outlineConnect=0;rounded=0;strokeColor=#FFFFFF;align=center;fontFamily=Helvetica;fontSize=12;fontColor=#FFFFFF;labelBackgroundColor=none;fillColor=none;" vertex="1" parent="33">
                    <mxGeometry x="11" y="16" width="30" height="60" as="geometry"/>
                </mxCell>
                <mxCell id="35" value="" style="rounded=0;whiteSpace=wrap;html=1;strokeColor=#FFFFFF;align=center;verticalAlign=middle;fontFamily=Helvetica;fontSize=12;fontColor=#FFFFFF;labelBackgroundColor=none;fillColor=none;dashed=1;" vertex="1" parent="33">
                    <mxGeometry width="55" height="108" as="geometry"/>
                </mxCell>
                <mxCell id="36" style="edgeStyle=none;shape=connector;curved=0;rounded=0;html=1;entryX=0.25;entryY=1;entryDx=0;entryDy=0;strokeColor=#FF99FF;align=center;verticalAlign=middle;fontFamily=Helvetica;fontSize=12;fontColor=#FFFFFF;labelBackgroundColor=none;endArrow=classic;exitX=1.017;exitY=0.128;exitDx=0;exitDy=0;exitPerimeter=0;" edge="1" parent="1" source="35" target="2">
                    <mxGeometry relative="1" as="geometry">
                        <mxPoint x="-34" y="362" as="sourcePoint"/>
                    </mxGeometry>
                </mxCell>
                <mxCell id="37" style="edgeStyle=none;shape=connector;curved=0;rounded=0;html=1;strokeColor=#FF0080;align=center;verticalAlign=middle;fontFamily=Helvetica;fontSize=12;fontColor=#FFFFFF;labelBackgroundColor=none;endArrow=classic;entryX=0.808;entryY=1.022;entryDx=0;entryDy=0;entryPerimeter=0;exitX=1.024;exitY=0.861;exitDx=0;exitDy=0;exitPerimeter=0;" edge="1" parent="1" source="35" target="2">
                    <mxGeometry relative="1" as="geometry">
                        <mxPoint x="245" y="308" as="targetPoint"/>
                    </mxGeometry>
                </mxCell>
                <mxCell id="38" style="edgeStyle=none;shape=connector;curved=0;rounded=0;html=1;exitX=1;exitY=0.5;exitDx=0;exitDy=0;entryX=0.5;entryY=1;entryDx=0;entryDy=0;strokeColor=#FF0080;align=center;verticalAlign=middle;fontFamily=Helvetica;fontSize=12;fontColor=#FFFFFF;labelBackgroundColor=none;endArrow=classic;" edge="1" parent="1" source="35" target="2">
                    <mxGeometry relative="1" as="geometry"/>
                </mxCell>
                <mxCell id="40" value="http://mydomain.com" style="edgeStyle=none;shape=connector;curved=0;rounded=0;html=1;exitX=1;exitY=1;exitDx=0;exitDy=0;strokeColor=#FF99FF;align=center;verticalAlign=top;fontFamily=Helvetica;fontSize=9;fontColor=#FFFFFF;labelBackgroundColor=none;endArrow=classic;fillColor=#dae8fc;strokeWidth=2;" edge="1" parent="1">
                    <mxGeometry x="-0.0061" relative="1" as="geometry">
                        <mxPoint x="-147" y="312" as="sourcePoint"/>
                        <mxPoint x="-79" y="312" as="targetPoint"/>
                        <mxPoint as="offset"/>
                    </mxGeometry>
                </mxCell>
                <mxCell id="41" value="&lt;span style=&quot;color: rgb(255, 255, 255);&quot;&gt;http://&lt;/span&gt;api.mydomain.com" style="edgeStyle=none;shape=connector;curved=0;rounded=0;html=1;exitX=1;exitY=1;exitDx=0;exitDy=0;align=center;verticalAlign=top;fontFamily=Helvetica;fontSize=9;fontColor=#FFFFFF;labelBackgroundColor=none;endArrow=classic;strokeWidth=2;strokeColor=#FF0080;" edge="1" parent="1">
                    <mxGeometry x="-0.0061" relative="1" as="geometry">
                        <mxPoint x="-147" y="352" as="sourcePoint"/>
                        <mxPoint x="-79" y="352" as="targetPoint"/>
                        <mxPoint as="offset"/>
                    </mxGeometry>
                </mxCell>
                <mxCell id="42" style="edgeStyle=none;shape=connector;curved=0;rounded=0;html=1;exitX=0.804;exitY=1.008;exitDx=0;exitDy=0;strokeColor=#FFFFFF;align=center;verticalAlign=middle;fontFamily=Helvetica;fontSize=12;fontColor=#FFFFFF;labelBackgroundColor=none;endArrow=classic;fillColor=#dae8fc;exitPerimeter=0;entryX=0.641;entryY=0.99;entryDx=0;entryDy=0;entryPerimeter=0;" edge="1" parent="1" source="2" target="2">
                    <mxGeometry relative="1" as="geometry">
                        <mxPoint x="160" y="358" as="sourcePoint"/>
                        <mxPoint x="234" y="349" as="targetPoint"/>
                        <Array as="points">
                            <mxPoint x="235" y="294"/>
                        </Array>
                    </mxGeometry>
                </mxCell>
                <mxCell id="43" style="edgeStyle=none;shape=connector;curved=0;rounded=0;html=1;exitX=0.804;exitY=1.008;exitDx=0;exitDy=0;strokeColor=#FFFFFF;align=center;verticalAlign=middle;fontFamily=Helvetica;fontSize=12;fontColor=#FFFFFF;labelBackgroundColor=none;endArrow=classic;fillColor=#dae8fc;exitPerimeter=0;entryX=0.641;entryY=0.99;entryDx=0;entryDy=0;entryPerimeter=0;" edge="1" parent="1">
                    <mxGeometry relative="1" as="geometry">
                        <mxPoint x="198" y="258" as="sourcePoint"/>
                        <mxPoint x="179" y="258" as="targetPoint"/>
                        <Array as="points">
                            <mxPoint x="199" y="294"/>
                        </Array>
                    </mxGeometry>
                </mxCell>
                <mxCell id="44" style="edgeStyle=none;shape=connector;curved=0;rounded=0;html=1;strokeColor=#6c8ebf;align=center;verticalAlign=middle;fontFamily=Helvetica;fontSize=12;fontColor=#FFFFFF;labelBackgroundColor=none;endArrow=classic;fillColor=#dae8fc;exitX=0.25;exitY=1;exitDx=0;exitDy=0;entryX=0.06;entryY=0.999;entryDx=0;entryDy=0;entryPerimeter=0;" edge="1" parent="1" source="2" target="2">
                    <mxGeometry relative="1" as="geometry">
                        <mxPoint x="163" y="309" as="sourcePoint"/>
                        <mxPoint x="172" y="316" as="targetPoint"/>
                        <Array as="points">
                            <mxPoint x="167" y="298"/>
                        </Array>
                    </mxGeometry>
                </mxCell>
                <mxCell id="45" style="edgeStyle=none;shape=connector;curved=0;rounded=0;html=1;entryX=0;entryY=0.5;entryDx=0;entryDy=0;strokeColor=#FF99FF;align=center;verticalAlign=middle;fontFamily=Helvetica;fontSize=12;fontColor=#FFFFFF;labelBackgroundColor=none;endArrow=classic;fillColor=#dae8fc;exitX=0.994;exitY=0.874;exitDx=0;exitDy=0;exitPerimeter=0;startArrow=classic;startFill=1;" edge="1" parent="1" source="2" target="4">
                    <mxGeometry relative="1" as="geometry">
                        <mxPoint x="265" y="257" as="sourcePoint"/>
                        <mxPoint x="426" y="315" as="targetPoint"/>
                    </mxGeometry>
                </mxCell>
                <mxCell id="46" style="edgeStyle=none;shape=connector;curved=0;rounded=0;html=1;strokeColor=#6c8ebf;align=center;verticalAlign=middle;fontFamily=Helvetica;fontSize=12;fontColor=#FFFFFF;labelBackgroundColor=none;endArrow=classic;fillColor=#dae8fc;exitX=0.072;exitY=1.022;exitDx=0;exitDy=0;exitPerimeter=0;entryX=1.017;entryY=0.219;entryDx=0;entryDy=0;entryPerimeter=0;" edge="1" parent="1" source="2" target="35">
                    <mxGeometry relative="1" as="geometry">
                        <mxPoint x="178" y="268" as="sourcePoint"/>
                        <mxPoint x="-29" y="342" as="targetPoint"/>
                        <Array as="points"/>
                    </mxGeometry>
                </mxCell>
                <mxCell id="47" style="edgeStyle=none;shape=connector;curved=0;rounded=0;html=1;exitX=0.346;exitY=1.018;exitDx=0;exitDy=0;strokeColor=#FFFFFF;align=center;verticalAlign=middle;fontFamily=Helvetica;fontSize=12;fontColor=#FFFFFF;labelBackgroundColor=none;endArrow=classic;fillColor=#dae8fc;exitPerimeter=0;entryX=0.987;entryY=0.601;entryDx=0;entryDy=0;entryPerimeter=0;" edge="1" parent="1" source="2" target="35">
                    <mxGeometry relative="1" as="geometry">
                        <mxPoint x="208" y="268" as="sourcePoint"/>
                        <mxPoint x="168" y="338" as="targetPoint"/>
                        <Array as="points"/>
                    </mxGeometry>
                </mxCell>
                <mxCell id="48" style="edgeStyle=none;shape=connector;curved=0;rounded=0;html=1;strokeColor=#FFFFFF;align=center;verticalAlign=middle;fontFamily=Helvetica;fontSize=12;fontColor=#FFFFFF;labelBackgroundColor=none;endArrow=classic;fillColor=#dae8fc;entryX=1.054;entryY=0.967;entryDx=0;entryDy=0;entryPerimeter=0;" edge="1" parent="1" target="35">
                    <mxGeometry relative="1" as="geometry">
                        <mxPoint x="216" y="258" as="sourcePoint"/>
                        <mxPoint x="-36" y="462" as="targetPoint"/>
                        <Array as="points"/>
                    </mxGeometry>
                </mxCell>
                <mxCell id="50" style="edgeStyle=none;shape=connector;curved=0;rounded=0;html=1;entryX=0.138;entryY=1.004;entryDx=0;entryDy=0;entryPerimeter=0;strokeColor=#FF0080;align=center;verticalAlign=middle;fontFamily=Helvetica;fontSize=12;fontColor=#FFFFFF;labelBackgroundColor=none;endArrow=classic;startArrow=classic;startFill=1;" edge="1" parent="1" source="2" target="5">
                    <mxGeometry relative="1" as="geometry"/>
                </mxCell>
                <mxCell id="52" value="port 80" style="text;html=1;align=center;verticalAlign=middle;whiteSpace=wrap;rounded=0;fontFamily=Helvetica;fontSize=18;fontColor=#FFFFFF;labelBackgroundColor=none;" vertex="1" parent="1">
                    <mxGeometry x="348" y="265" width="91" height="19" as="geometry"/>
                </mxCell>
            </root>
        </mxGraphModel>
    </diagram>
</mxfile>